HIERARCHY
ROOT Hips
{
	OFFSET 0.000000 0.000000 0.000000
	CHANNELS 6 Xposition Yposition Zposition Zrotation Yrotation Xrotation 
	JOINT LHipJoint
	{
		OFFSET 0.000000 0.000000 0.000000
		CHANNELS 3 Zrotation Yrotation Xrotation
		JOINT LeftUpLeg
		{
			OFFSET 1.363060 -1.794630 0.839290
			CHANNELS 3 Zrotation Yrotation Xrotation
			JOINT LeftLeg
			{
				OFFSET 2.448110 -6.726130 0.000000
				CHANNELS 3 Zrotation Yrotation Xrotation
				JOINT LeftFoot
				{
					OFFSET 2.562200 -7.039590 0.000000
					CHANNELS 3 Zrotation Yrotation Xrotation
					JOINT LeftToeBase
					{
						OFFSET 0.157640 -0.433110 2.322550
						CHANNELS 3 Zrotation Yrotation Xrotation
						End Site
						{
							OFFSET 0.000000 0.000000 0.000000
						}
					}
				}
			}
		}
	}
	JOINT RHipJoint
	{
		OFFSET 0.000000 0.000000 0.000000
		CHANNELS 3 Zrotation Yrotation Xrotation
		JOINT RightUpLeg
		{
			OFFSET -1.305520 -1.794630 0.839290
			CHANNELS 3 Zrotation Yrotation Xrotation
			JOINT RightLeg
			{
				OFFSET -2.542530 -6.985550 0.000000
				CHANNELS 3 Zrotation Yrotation Xrotation
				JOINT RightFoot
				{
					OFFSET -2.568260 -7.056230 0.000000
					CHANNELS 3 Zrotation Yrotation Xrotation
					JOINT RightToeBase
					{
						OFFSET -0.164730 -0.452590 2.363150
						CHANNELS 3 Zrotation Yrotation Xrotation
						End Site
						{
							OFFSET 0.000000 0.000000 0.000000
						}
					}
				}
			}
		}
	}
	JOINT LowerBack
	{
		OFFSET 0.000000 0.000000 0.000000
		CHANNELS 3 Zrotation Yrotation Xrotation
		JOINT Spine
		{
			OFFSET 0.028270 2.035590 -0.193380
			CHANNELS 3 Zrotation Yrotation Xrotation
			JOINT Spine1
			{
				OFFSET 0.056720 2.048850 -0.042750
				CHANNELS 3 Zrotation Yrotation Xrotation
				JOINT Neck
				{
					OFFSET 0.000000 0.000000 0.000000
					CHANNELS 3 Zrotation Yrotation Xrotation
					JOINT Neck1
					{
						OFFSET -0.054170 1.746240 0.172020
						CHANNELS 3 Zrotation Yrotation Xrotation
						JOINT Head
						{
							OFFSET 0.104070 1.761360 -0.123970
							CHANNELS 3 Zrotation Yrotation Xrotation
							End Site
							{
								OFFSET 0.000000 0.000000 0.000000
							}
						}
					}
				}
				JOINT LeftShoulder
				{
					OFFSET 0.000000 0.000000 0.000000
					CHANNELS 3 Zrotation Yrotation Xrotation
					JOINT LeftArm
					{
						OFFSET 3.362410 1.200890 -0.311210
						CHANNELS 3 Zrotation Yrotation Xrotation
						JOINT LeftForeArm
						{
							OFFSET 4.983000 -0.000000 -0.000000
							CHANNELS 3 Zrotation Yrotation Xrotation
							JOINT LeftHand
							{
								OFFSET 3.483560 -0.000000 -0.000000
								CHANNELS 3 Zrotation Yrotation Xrotation
								JOINT LeftFingerBase
								{
									OFFSET 0.000000 0.000000 0.000000
									CHANNELS 3 Zrotation Yrotation Xrotation
									JOINT LeftHandIndex1
									{
										OFFSET 0.715260 -0.000000 -0.000000
										CHANNELS 3 Zrotation Yrotation Xrotation
										End Site
										{
											OFFSET 0.000000 0.000000 0.000000
										}
									}
								}
								JOINT LThumb
								{
									OFFSET 0.000000 0.000000 0.000000
									CHANNELS 3 Zrotation Yrotation Xrotation
									End Site
									{
										OFFSET 0.000000 0.000000 0.000000
									}
								}
							}
						}
					}
				}
				JOINT RightShoulder
				{
					OFFSET 0.000000 0.000000 0.000000
					CHANNELS 3 Zrotation Yrotation Xrotation
					JOINT RightArm
					{
						OFFSET -3.136600 1.374050 -0.404650
						CHANNELS 3 Zrotation Yrotation Xrotation
						JOINT RightForeArm
						{
							OFFSET -5.241900 -0.000000 -0.000000
							CHANNELS 3 Zrotation Yrotation Xrotation
							JOINT RightHand
							{
								OFFSET -3.444170 -0.000000 -0.000000
								CHANNELS 3 Zrotation Yrotation Xrotation
								JOINT RightFingerBase
								{
									OFFSET 0.000000 0.000000 0.000000
									CHANNELS 3 Zrotation Yrotation Xrotation
									JOINT RightHandIndex1
									{
										OFFSET -0.622530 -0.000000 -0.000000
										CHANNELS 3 Zrotation Yrotation Xrotation
										End Site
										{
											OFFSET 0.000000 0.000000 0.000000
										}
									}
								}
								JOINT RThumb
								{
									OFFSET 0.000000 0.000000 0.000000
									CHANNELS 3 Zrotation Yrotation Xrotation
									End Site
									{
										OFFSET 0.000000 0.000000 0.000000
									}
								}
							}
						}
					}
				}
			}
		}
	}
}
MOTION
Frames: 9
Frame Time: 0.008333
7.229171 17.813693 37.578084 -179.781538 1.715990 -168.334637 4.782829 3.041672 -0.279053 -23.014003 -13.670035 -6.714801 0.354259 4.750768 14.548335 0.467925 -1.929024 -12.052242 8.950600 -16.775900 -55.919300 -10.322496 -4.831666 -2.542518 31.273968 5.828759 -2.282939 0.148601 -1.745226 9.530120 -0.622433 3.256688 -13.165922 -1.461800 7.641400 -21.630100 -1.566816 2.958310 -3.679126 0.334306 3.323925 -4.583146 1.449535 1.492883 4.720452 -7.985880 -0.737461 -10.505820 9.508156 -7.005793 30.636977 3.080300 -4.047600 12.503100 1.989285 -4.572041 1.339708 -88.400217 -8.262647 14.500642 5.792829 -14.128346 -1.763074 0.106618 1.334607 20.573606 33.693783 -16.676157 -11.891400 -7.125000 0.000000 0.000000 3.870500 8.444400 -3.267800 -1.812278 4.757988 1.855457 86.763336 -1.954847 3.817145 -5.553904 24.975419 -3.836271 -0.549540 -2.604108 20.762875 -24.838636 -46.271568 17.933500 7.125000 0.000000 0.000000 22.782400 -75.067300 -16.332600 
7.229386 17.810582 37.584630 -179.802627 1.697131 -168.182944 4.759735 3.033772 -0.266735 -22.956562 -13.736765 -6.927265 0.348454 4.767432 14.569325 0.570980 -2.435180 -13.128069 9.380700 -17.046500 -57.397600 -10.316998 -4.846122 -2.537234 31.237142 5.596774 -2.662409 0.142236 -1.772370 9.555763 -0.588235 3.149432 -12.875657 -1.695800 8.201500 -23.327700 -1.642042 2.978321 -3.821771 0.334048 3.344338 -4.603887 1.516067 1.508818 4.726158 -8.098242 -0.761373 -10.363416 9.664831 -7.078188 30.517215 3.159300 -4.086400 12.417600 1.988033 -4.567887 1.404512 -88.864575 -5.580261 24.363215 4.657557 -13.082601 -1.778077 0.521058 1.313056 29.760466 40.470546 -32.871168 -26.012000 -7.125000 0.000000 0.000000 4.121400 -12.195000 -4.910200 -1.810346 4.733561 1.835478 86.774508 -1.985830 3.779037 -5.667841 25.087651 -3.859263 -0.494833 -2.620145 20.928094 -23.645314 -46.202256 17.065900 7.125000 0.000000 0.000000 24.201100 -74.601800 -17.140900 
7.228098 17.810582 37.589458 -179.837634 1.599285 -168.142260 4.753518 3.032314 -0.257163 -22.995111 -13.888409 -7.010823 0.328555 4.807963 14.660220 0.621885 -1.768158 -13.894815 9.992000 -17.405300 -59.461600 -10.309967 -4.855318 -2.546177 31.198198 5.380530 -2.814003 0.141049 -1.784406 9.576001 -0.570545 2.983609 -12.726961 -1.921000 8.699500 -24.859900 -1.665749 2.968105 -3.852932 0.328199 3.331977 -4.609193 1.513576 1.503995 4.702738 -8.291465 -0.782808 -10.226634 9.919042 -7.176089 30.424025 3.301800 -4.141900 12.372000 1.991703 -4.599487 1.347621 -89.078780 -5.313427 25.656687 4.646697 -12.926688 -1.299685 0.519893 1.059857 31.145988 26.883026 -18.439086 -9.760200 -7.125000 0.000000 0.000000 -0.875600 8.053600 0.744400 -1.831446 4.733973 1.847596 86.829428 -1.940968 3.719212 -5.640202 25.050858 -3.838527 -0.490836 -2.622108 20.799895 -23.638034 -45.568884 16.869600 7.125000 0.000000 0.000000 22.880800 -74.062500 -15.923100 
7.227132 17.811333 37.595682 -179.919482 1.482909 -168.173116 4.754472 3.025180 -0.237180 -23.155699 -14.381083 -7.065733 0.332602 4.971705 15.089188 0.686952 -0.833515 -14.938017 10.607800 -17.737800 -61.501200 -10.298803 -4.861359 -2.572782 31.108250 5.082647 -2.884170 0.142361 -1.776837 9.560769 -0.550457 2.774539 -12.551667 -2.204200 9.279000 -26.672100 -1.731477 2.963873 -3.800108 0.313207 3.337835 -4.602220 1.488207 1.506231 4.695648 -8.370032 -0.831657 -10.202629 10.067581 -7.296237 30.398621 3.371800 -4.195800 12.377100 1.999245 -4.602286 1.347433 -89.220776 -5.299493 26.131563 4.663235 -12.960728 -1.313331 0.529978 1.063307 31.184425 27.196998 -18.869528 -10.096500 -7.125000 0.000000 0.000000 -0.730600 7.514100 0.628800 -1.860889 4.726738 1.845469 86.948947 -1.854478 3.402450 -5.563427 24.939441 -3.803832 -0.510945 -2.618064 20.832199 -23.906555 -44.675078 16.780000 7.125000 0.000000 0.000000 20.810500 -73.376000 -14.146800 
7.225738 17.811762 37.602012 -179.982447 1.430901 -168.209417 4.715359 3.038083 -0.229981 -23.124208 -14.052356 -6.956076 0.282600 4.847340 14.744472 0.821467 -1.139332 -16.188310 11.069200 -17.968800 -63.006200 -10.277626 -4.867747 -2.585729 31.018853 4.852894 -2.979017 0.136880 -1.785796 9.583697 -0.532145 2.688044 -12.384863 -2.497200 9.832800 -28.436800 -1.786949 2.981242 -3.741781 0.296809 3.371777 -4.603613 1.454074 1.517197 4.670686 -8.110863 -0.881026 -10.458273 9.873672 -7.345348 30.568293 3.227300 -4.185600 12.513500 2.016244 -4.586418 1.328122 -89.337475 -5.134300 27.452548 4.953256 -13.356232 -1.330914 0.498288 1.055831 30.308346 26.533161 -17.796792 -9.312000 -7.125000 0.000000 0.000000 -1.027300 8.833300 0.857500 -1.873001 4.758291 1.846047 87.067888 -1.844847 2.903995 -5.587303 24.914581 -3.810372 -0.557473 -2.596352 21.396628 -24.503917 -44.094659 17.016500 7.125000 0.000000 0.000000 18.998800 -73.065900 -12.764800 
7.220158 17.812728 37.603407 -179.974295 1.483384 -168.258888 4.713556 3.049667 -0.220412 -23.152434 -14.159009 -6.728269 0.279002 4.835785 14.724883 0.833401 -1.122600 -16.307411 11.051300 -17.960100 -62.948200 -10.272104 -4.893640 -2.610039 31.020535 4.340727 -3.207938 0.126532 -1.795610 9.601132 -0.487929 2.646367 -11.960922 -2.818500 10.395300 -30.266500 -1.712852 3.038302 -3.729495 0.279102 3.441853 -4.601171 1.352471 1.546566 4.699640 -7.621532 -0.905132 -10.920757 9.457058 -7.302878 30.854574 2.948500 -4.112300 12.729400 2.034985 -4.545724 1.323474 -89.452777 -5.011633 27.225177 4.784815 -13.160586 -1.366529 0.512973 1.097620 31.826471 28.888350 -18.791978 -10.819600 -7.125000 0.000000 0.000000 0.380100 7.232500 -0.329200 -1.873286 4.802139 1.841990 87.133839 -1.885751 2.673797 -5.639882 24.956349 -3.820515 -0.508047 -2.623482 21.518639 -23.264183 -44.176435 16.187000 7.125000 0.000000 0.000000 20.745300 -72.730400 -13.815000 
7.212647 17.812835 37.599866 -179.858188 1.620112 -168.271661 4.707267 3.046078 -0.227314 -23.076878 -14.228540 -6.517423 0.264953 4.799110 14.634316 0.843400 -0.988737 -16.451600 10.998900 -17.934500 -62.777900 -10.273508 -4.901811 -2.607013 31.111138 4.302937 -3.239522 0.118453 -1.814687 9.646940 -0.490168 2.854876 -11.974579 -2.872500 10.485800 -30.564500 -1.531649 3.119922 -3.834414 0.274790 3.523491 -4.594634 1.276271 1.585995 4.772842 -7.366192 -0.915702 -11.132388 9.227107 -7.295179 31.024158 2.797600 -4.086800 12.839900 2.050074 -4.527414 1.321686 -89.591838 -4.840657 27.512622 4.755773 -13.143997 -1.393090 0.497796 1.126362 32.721201 30.491330 -18.732144 -11.528500 -7.125000 0.000000 0.000000 1.430500 6.936300 -1.247700 -1.871139 4.818040 1.839182 87.122458 -1.958815 2.720339 -5.630974 24.948697 -3.793203 -0.452993 -2.638147 20.984851 -22.530853 -43.561114 15.500400 7.125000 0.000000 0.000000 20.650100 -71.954200 -13.404600 
7.207604 17.813693 37.600832 -179.778999 1.706537 -168.209751 4.701418 3.043953 -0.235186 -22.989654 -14.180729 -6.480611 0.242833 4.718955 14.412578 0.830941 -0.933747 -16.348564 10.913700 -17.892600 -62.501200 -10.281735 -4.908572 -2.591122 31.181452 4.351885 -3.360334 0.109014 -1.852492 9.728829 -0.486744 2.963416 -11.940696 -2.876000 10.491600 -30.583800 -1.453430 3.132776 -3.971715 0.293473 3.520722 -4.601054 1.331682 1.587749 4.817699 -7.438102 -0.896782 -11.148600 9.243299 -7.289071 31.092004 2.821300 -4.098300 12.877000 2.057548 -4.530436 1.321604 -89.785873 -4.745661 27.242589 4.702878 -13.080727 -1.400942 0.505303 1.130313 33.670905 31.216075 -18.842056 -11.927300 -7.125000 0.000000 0.000000 1.881000 6.644800 -1.651600 -1.857929 4.816599 1.834913 86.987962 -2.048386 3.139635 -5.603009 24.900715 -3.725709 -0.638439 -2.470091 19.923468 -28.034431 -38.939632 17.571300 7.125000 0.000000 0.000000 7.714100 -69.340600 -4.506000 
7.205136 17.815303 37.609738 -179.892998 1.719423 -168.181486 4.701302 3.050052 -0.235685 -23.118812 -14.164337 -6.447061 0.224775 4.640596 14.197778 0.810342 -0.946023 -16.140151 10.814400 -17.843100 -62.177400 -10.276031 -4.904694 -2.583593 31.019487 4.395813 -3.488868 0.094946 -1.892307 9.825938 -0.485161 2.999570 -11.929781 -2.790500 10.348000 -30.111200 -1.592054 3.095273 -3.976703 0.293901 3.488940 -4.604130 1.425529 1.568801 4.819086 -7.579250 -0.878390 -11.159435 9.344336 -7.280243 31.101820 2.895600 -4.107100 12.894900 2.049258 -4.529784 1.315952 -89.902429 -4.762926 26.769380 4.651207 -13.006980 -1.400010 0.520419 1.125425 34.528656 31.454303 -18.934168 -12.090200 -7.125000 0.000000 0.000000 2.018800 6.484900 -1.779000 -1.833051 4.805014 1.850735 86.824595 -2.040309 3.489928 -5.564815 25.001428 -3.873900 -0.248608 -2.788545 18.542846 -18.674363 -49.387189 14.270400 7.125000 0.000000 0.000000 37.979800 -75.212900 -27.896800 
